HIERARCHY
ROOT Hips
{
	OFFSET	0.00	0.00	0.00
	CHANNELS 6 Xposition Yposition Zposition Zrotation Xrotation Yrotation
	JOINT LeftUpLeg
	{
		OFFSET	 0.126116	-0.065224	 0.014019
		CHANNELS 3 Zrotation Xrotation Yrotation
		JOINT LeftLeg
		{
			OFFSET	 0.000000	 0.569914	 0.000000
			CHANNELS 3 Zrotation Xrotation Yrotation
			JOINT LeftFoot
			{
				OFFSET	 0.000000	 0.544423	 0.000000
				CHANNELS 3 Zrotation Xrotation Yrotation
				JOINT LeftToeBase
				{
					OFFSET	 0.000000	 0.207117	 0.000000
					CHANNELS 3 Zrotation Xrotation Yrotation
					End Site
					{
						OFFSET	 0.000000	 0.207117	 0.000000
					}
				}
			}
		}
	}
	JOINT RightUpLeg
	{
		OFFSET	-0.124023	-0.065224	 0.008373
		CHANNELS 3 Zrotation Xrotation Yrotation
		JOINT RightLeg
		{
			OFFSET	 0.000000	 0.570047	 0.000000
			CHANNELS 3 Zrotation Xrotation Yrotation
			JOINT RightFoot
			{
				OFFSET	 0.000000	 0.544354	 0.000000
				CHANNELS 3 Zrotation Xrotation Yrotation
				JOINT RightToeBase
				{
					OFFSET	 0.000000	 0.207540	 0.000000
					CHANNELS 3 Zrotation Xrotation Yrotation
					End Site
					{
						OFFSET	 0.000000	 0.207540	 0.000000
					}
				}
			}
		}
	}
	JOINT Spine
	{
		OFFSET	 0.000184	 0.117403	 0.007763
		CHANNELS 3 Zrotation Xrotation Yrotation
		JOINT Spine1
		{
			OFFSET	 0.000000	 0.137269	 0.000000
			CHANNELS 3 Zrotation Xrotation Yrotation
			JOINT Spine2
			{
				OFFSET	 0.000000	 0.156879	 0.000000
				CHANNELS 3 Zrotation Xrotation Yrotation
				JOINT LeftShoulder
				{
					OFFSET	 0.080501	 0.160143	 0.002496
					CHANNELS 3 Zrotation Xrotation Yrotation
					JOINT LeftArm
					{
						OFFSET	 0.000000	 0.164363	 0.000000
						CHANNELS 3 Zrotation Xrotation Yrotation
						JOINT LeftForeArm
						{
							OFFSET	 0.000000	 0.364576	 0.000000
							CHANNELS 3 Zrotation Xrotation Yrotation
							JOINT LeftHand
							{
								OFFSET	 0.000000	 0.360812	 0.000000
								CHANNELS 3 Zrotation Xrotation Yrotation
								JOINT LeftHandIndex1
								{
									OFFSET	 0.000000	 0.086006	 0.000000
									CHANNELS 3 Zrotation Xrotation Yrotation
									JOINT LeftHandIndex2
									{
										OFFSET	 0.000000	 0.047237	 0.000000
										CHANNELS 3 Zrotation Xrotation Yrotation
										JOINT LeftHandIndex3
										{
											OFFSET	-0.004284	 0.038165	 0.000551
											CHANNELS 3 Zrotation Xrotation Yrotation
											End Site
											{
												OFFSET	-0.004284	 0.038165	 0.000551
											}
										}
									}
								}
							}
						}
					}
				}
				JOINT Neck
				{
					OFFSET	 0.000000	 0.176489	 0.000000
					CHANNELS 3 Zrotation Xrotation Yrotation
					JOINT Head
					{
						OFFSET	 0.000000	 0.077941	 0.001747
						CHANNELS 3 Zrotation Xrotation Yrotation
						End Site
						{
							OFFSET	 0.000000	 0.077941	 0.001747
						}
					}
				}
				JOINT RightShoulder
				{
					OFFSET	-0.080363	 0.159706	-0.000306
					CHANNELS 3 Zrotation Xrotation Yrotation
					JOINT RightArm
					{
						OFFSET	 0.000000	 0.164196	 0.000000
						CHANNELS 3 Zrotation Xrotation Yrotation
						JOINT RightForeArm
						{
							OFFSET	 0.000000	 0.365611	 0.000000
							CHANNELS 3 Zrotation Xrotation Yrotation
							JOINT RightHand
							{
								OFFSET	 0.000000	 0.360648	 0.000000
								CHANNELS 3 Zrotation Xrotation Yrotation
								JOINT RightHandIndex1
								{
									OFFSET	 0.000000	 0.069977	 0.000000
									CHANNELS 3 Zrotation Xrotation Yrotation
									JOINT RightHandIndex2
									{
										OFFSET	 0.000000	 0.052305	 0.000000
										CHANNELS 3 Zrotation Xrotation Yrotation
										JOINT RightHandIndex3
										{
											OFFSET	 0.009002	 0.042196	 0.000782
											CHANNELS 3 Zrotation Xrotation Yrotation
											End Site
											{
												OFFSET	 0.009002	 0.042196	 0.000782
											}
										}
									}
								}
							}
						}
					}
				}
			}
		}
	}
}
MOTION
Frames:    9
Frame Time: 0.03333334
-0.045619	 1.234296	-1.247147	-3.398534	 1.442690	-174.112000	 166.123800	 6.454191	 12.105690	 4.068571	-28.131390	 5.973792	 5.669108	 76.649470	 1.979420	 1.513125	 31.250750	-2.812056	-176.554600	 27.611430	-11.274690	-5.883072	-53.719110	 6.248188	 12.923140	 70.624150	-8.866929	-1.668896	 33.141680	 2.886368	-1.484823	 8.627195	-1.280332	-0.342169	 3.725581	-0.003094	 0.511451	-4.139177	-3.069826	-121.358600	 7.433981	 94.040700	 27.364410	 48.770140	-8.963603	 5.096965	-0.263415	-0.072125	 17.600490	-10.303830	 10.836160	 4.625526	 18.860950	-1.655686	-5.863941	 21.474720	 2.374098	 5.331695	 4.343917	-0.168968	-0.168562	-5.010473	-0.143820	-2.099109	-2.052717	-3.714465	 118.422400	-0.019431	-90.823460	 16.798230	 52.918490	-19.139310	-21.084340	-0.810958	-0.092331	 0.435150	 2.376316	-7.524965	-2.433256	 25.956120	 1.333741	 15.845800	 44.945870	-11.829690	-8.529155	 23.953980	-1.225242
-0.045575	 1.234026	-1.249434	-3.411514	 1.392921	-174.066300	 166.106900	 6.404390	 12.109430	 4.095063	-28.179670	 6.060575	 5.959266	 76.744540	 1.706584	 1.516299	 31.290230	-2.813549	-176.656800	 27.952140	-11.135260	-5.900465	-53.732800	 6.269105	 13.742360	 71.124130	-9.469376	-1.670281	 33.158230	 2.887060	-1.483519	 8.595165	-1.317543	-0.352032	 3.721366	-0.004838	 0.513381	-4.145763	-3.081225	-121.357500	 7.473498	 94.060330	 27.614340	 48.667830	-9.050904	 5.101964	-0.263659	-0.072075	 17.839490	-10.465940	 10.824150	 4.630630	 18.877700	-1.658408	-5.863895	 21.489430	 2.375721	 5.332326	 4.358715	-0.168699	-0.169286	-5.013834	-0.140495	-2.086802	-2.069788	-3.716192	 118.416900	-0.042746	-90.812530	 16.977700	 52.934490	-19.213620	-21.096270	-0.811347	-0.092549	 0.605081	 2.431330	-7.624145	-2.414700	 25.818440	 1.323784	 15.810840	 44.811560	-11.775950	-8.529687	 23.815770	-1.216025
-0.045515	 1.233660	-1.252569	-3.427800	 1.329957	-174.008800	 166.088200	 6.326577	 12.197280	 4.082794	-28.242600	 6.074012	 6.338705	 76.875380	 1.350679	 1.520275	 31.339650	-2.815424	-176.790300	 28.413480	-10.961560	-5.921651	-53.741550	 6.295948	 14.818460	 71.702650	-10.268790	-1.672016	 33.178960	 2.887929	-1.482073	 8.554871	-1.365331	-0.363105	 3.718984	-0.008318	 0.515213	-4.155087	-3.095522	-121.356200	 7.522981	 94.084870	 27.964520	 48.523660	-9.186595	 5.107800	-0.263954	-0.072085	 18.112320	-10.659940	 10.803480	 4.637020	 18.898660	-1.661817	-5.863839	 21.507850	 2.377754	 5.333117	 4.377237	-0.168362	-0.170191	-5.018041	-0.136334	-2.071396	-2.091123	-3.718349	 118.410100	-0.071937	-90.798810	 17.219320	 52.954520	-19.320680	-21.107560	-0.811786	-0.092689	 0.802402	 2.496193	-7.751376	-2.391541	 25.646100	 1.311406	 15.767440	 44.643390	-11.709020	-8.530321	 23.642770	-1.204503
-0.045435	 1.233182	-1.256737	-3.447450	 1.254519	-173.940100	 166.069800	 6.209075	 12.250070	 4.094150	-28.308910	 6.147261	 6.821898	 77.049370	 0.898526	 1.525074	 31.399230	-2.817690	-176.959500	 29.014690	-10.753040	-5.945399	-53.735280	 6.330069	 16.182850	 72.330050	-11.292710	-1.674107	 33.203950	 2.888976	-1.480561	 8.505960	-1.424397	-0.374709	 3.723421	-0.014056	 0.516688	-4.169538	-3.112716	-121.354700	 7.582596	 94.114490	 28.436690	 48.326440	-9.384295	 5.116365	-0.264402	-0.072026	 18.402690	-10.881570	 10.768990	 4.644725	 18.923930	-1.665930	-5.863773	 21.530040	 2.380204	 5.334071	 4.399561	-0.167957	-0.171281	-5.023111	-0.131319	-2.052832	-2.116909	-3.720924	 118.401800	-0.107082	-90.782330	 17.532430	 52.978730	-19.467400	-21.114020	-0.812020	-0.092790	 1.017647	 2.569011	-7.909542	-2.363724	 25.438350	 1.296612	 15.715660	 44.440640	-11.628840	-8.531034	 23.434230	-1.190638
-0.045332	 1.232581	-1.262046	-3.470216	 1.167047	-173.860400	 166.054000	 6.042758	 12.309320	 4.105564	-28.375490	 6.231084	 7.416073	 77.269620	 0.343617	 1.530620	 31.468000	-2.820314	-177.168000	 29.762980	-10.509640	-5.968868	-53.698070	 6.373121	 17.834570	 72.960300	-12.543450	-1.676523	 33.232790	 2.890188	-1.478966	 8.450244	-1.494884	-0.385822	 3.734484	-0.023095	 0.517340	-4.189279	-3.132583	-121.353000	 7.651437	 94.148670	 26.510660	 48.416090	-7.764460	 8.578016	-0.442206	-0.050724	 16.953910	-11.038020	 10.689910	 4.653625	 18.953090	-1.670684	-5.863697	 21.555670	 2.383033	 5.335171	 4.425334	-0.167490	-0.172540	-5.028965	-0.125529	-2.031401	-2.146728	-3.723852	 118.392300	-0.147687	-90.763310	 17.919930	 53.006650	-19.658020	-21.109240	-0.811820	-0.092698	 1.235568	 2.646183	-8.097774	-2.331740	 25.198480	 1.279701	 15.656590	 44.206490	-11.536920	-8.531786	 23.193460	-1.174660
-0.045201	 1.231826	-1.268792	-3.496426	 1.066447	-173.768600	 166.043700	 5.810845	 12.374630	 4.116217	-28.437480	 6.326750	 8.152961	 77.546350	-0.343620	 1.537033	 31.547400	-2.823357	-177.427600	 30.685230	-10.319380	-5.856612	-53.613220	 6.593206	 19.812840	 73.563310	-14.050730	-1.679314	 33.266090	 2.891589	-1.477332	 8.386091	-1.578970	-0.395716	 3.757259	-0.036367	 0.516843	-4.216531	-3.155486	-121.351100	 7.730907	 94.188170	 24.932460	 48.372190	-6.379179	 11.807620	-0.606677	-0.021107	 15.608470	-11.215490	 10.589660	 4.663902	 18.986750	-1.676178	-5.863610	 21.585250	 2.386300	 5.336441	 4.455083	-0.166951	-0.173991	-5.035722	-0.118845	-2.006666	-2.181186	-3.727211	 118.381300	-0.194576	-90.741320	 18.394870	 53.039210	-19.900490	-21.083720	-0.810937	-0.092348	 1.447032	 2.727096	-8.322242	-2.294991	 24.921560	 1.260403	 15.589330	 43.936070	-11.431670	-8.532562	 22.915500	-1.156254
-0.045055	 1.231014	-1.276128	-3.522752	 0.965440	-173.677400	 166.042200	 5.538654	 12.436580	 4.123277	-28.478560	 6.420504	 8.944203	 77.840880	-1.081056	 1.543437	 31.626540	-2.826402	-177.709000	 31.652580	-10.052930	-5.822352	-53.453130	 6.712515	 21.820500	 74.034580	-15.583090	-1.682098	 33.299280	 2.892987	-1.476279	 8.321691	-1.665280	-0.403088	 3.788253	-0.052242	 0.515246	-4.247648	-3.178309	-121.349200	 7.810138	 94.227520	 23.893950	 48.219630	-5.402318	 14.421540	-0.738349	 0.009571	 14.513780	-11.385030	 10.478430	 4.674154	 19.020320	-1.681662	-5.863527	 21.614730	 2.389556	 5.337707	 4.484743	-0.166414	-0.175438	-5.042458	-0.112182	-1.981996	-2.215444	-3.730581	 118.370300	-0.241306	-90.719420	 18.887900	 53.072790	-20.158030	-21.028290	-0.808893	-0.091510	 1.613454	 2.799874	-8.553156	-2.258533	 24.645430	 1.241399	 15.523260	 43.666370	-11.327650	-8.533238	 22.638360	-1.137943
-0.044856	 1.229919	-1.286087	-3.555738	 0.838753	-173.562700	 166.052800	 5.142615	 12.510790	 4.126658	-28.498260	 6.535427	 10.018860	 78.229580	-2.082777	 1.551471	 31.725660	-2.830235	-178.097000	 32.906940	-9.698524	-5.755341	-53.136370	 6.885165	 24.311760	 74.448230	-17.475160	-1.685588	 33.340850	 2.894742	-1.475274	 8.240865	-1.777420	-0.408623	 3.838525	-0.076331	 0.511657	-4.292060	-3.206884	-121.346900	 7.909344	 94.276780	 23.075070	 47.928140	-4.545212	 17.197780	-0.876516	 0.048702	 13.318410	-11.580070	 10.320050	 4.687001	 19.062350	-1.688542	-5.863424	 21.651660	 2.393636	 5.339291	 4.521888	-0.165743	-0.177249	-5.050895	-0.103838	-1.951107	-2.258411	-3.734765	 118.356700	-0.299840	-90.692000	 19.522190	 53.116300	-20.493990	-20.913040	-0.804634	-0.089942	 1.762437	 2.881829	-8.851974	-2.213124	 24.299560	 1.217927	 15.441870	 43.328450	-11.198610	-8.533948	 22.291230	-1.115065
-0.044622	 1.228660	-1.297589	-3.590854	 0.703169	-173.440400	 166.080400	 4.654310	 12.585330	 4.122607	-28.474690	 6.654904	 11.276750	 78.660850	-3.256469	 1.560086	 31.831740	-2.834358	-178.558900	 34.268890	-9.285511	-5.649921	-52.628370	 7.101955	 26.848340	 74.685670	-19.371190	-1.689327	 33.385340	 2.896624	-1.474520	 8.154800	-1.900784	-0.410527	 3.902350	-0.105656	 0.506040	-4.344128	-3.237463	-121.344600	 8.015523	 94.329560	 22.649790	 47.522680	-3.970922	 19.722190	-1.000404	 0.090086	 12.183010	-11.765350	 10.127630	 4.700759	 19.107320	-1.695917	-5.863318	 21.691180	 2.398002	 5.340986	 4.561638	-0.165026	-0.179185	-5.059924	-0.094908	-1.918042	-2.304334	-3.739238	 118.342000	-0.362505	-90.662670	 20.206090	 53.165450	-20.857170	-20.723150	-0.797647	-0.087300	 1.849255	 2.960109	-9.180985	-2.164831	 23.929370	 1.193208	 15.356410	 42.966630	-11.062020	-8.534542	 21.919720	-1.090646
